<?xml version="1.0" encoding="utf-8"?>
<!-- Generator: Adobe Illustrator 17.0.0, SVG Export Plug-In . SVG Version: 6.00 Build 0)  -->
<!DOCTYPE svg PUBLIC "-//W3C//DTD SVG 1.1//EN" "http://www.w3.org/Graphics/SVG/1.1/DTD/svg11.dtd">
<svg version="1.1" id="Capa_1" xmlns="http://www.w3.org/2000/svg" xmlns:xlink="http://www.w3.org/1999/xlink" x="0px" y="0px"
	 width="1570.007px" height="393.93px" viewBox="45.857 44.21 1570.007 393.93"
	 enable-background="new 45.857 44.21 1570.007 393.93" xml:space="preserve">
<g id="_x23_2e4bceff">
</g>
<path fill="#4B84FB" d="M46.79,44.21c46.11,0.23,92.21,0.25,138.32,0.5c2.34-0.18,4.02,2.02,3.72,4.24
	c0.05,15.02-0.02,30.05,0.02,45.07c0.09,12.15,1.16,24.59,6.05,35.87c5.63,13.85,17.53,25.01,31.97,29.17
	c-13.93,14.68-28.53,28.79-44.45,41.31c-11.72,9.1-24.13,17.59-37.95,23.14c-27.27,11.36-61.17,1.17-78.7-22.33
	c-14.06-18.55-18.48-42.43-19.06-65.2C46.86,105.39,46.77,74.8,46.79,44.21z"/>
<path fill="#4B84FB" d="M322.99,57.91c3.68-2.85,8.4-4.06,13-4.08c47,0.02,93.99,0.02,140.99,0c2.89,0.1,5.89-0.36,8.71,0.48
	c2.99,1.21,3.51,5.47,1.22,7.63c-44.77,55.52-89.54,111.05-134.31,166.58c-3.24,4.16-8.33,6.82-13.64,6.82
	c-60.32,0.03-120.64,0.01-180.96,0.01c-6.85-0.22-13.75,0.5-20.56-0.41c20.24-4.31,37.77-16.09,53.76-28.71
	c24.31-19.54,45.78-42.31,66.23-65.78c20.02-23.17,38.91-47.31,56.91-72.08C317.05,64.75,319.32,60.67,322.99,57.91z"/>
<path fill="#FFFFFF" d="M1099.16,365.75c35.62-81.29,71.03-162.68,106.63-243.99c13.23,0.01,26.47,0,39.7,0.01
	c-7.03,16.89-13.68,33.93-20.52,50.89c14.17,0.05,28.34,0.05,42.52,0c28.25,64.3,56.14,128.75,84.4,193.04
	c-15.09,0.2-30.19,0.15-45.28,0.03c-8.02-19.49-16.29-38.88-24.4-58.33c-38.14-0.04-76.28-0.04-114.41,0
	c-8.21,19.5-16.63,38.9-24.82,58.4C1128.37,365.79,1113.76,365.88,1099.16,365.75 M1207.51,213.4
	c-7.84,18.74-16.32,37.23-23.79,56.12c27.52,0.03,55.03,0.01,82.55,0c-4.16-11.06-9.31-21.74-13.85-32.65
	c-9.18-21.15-18.26-42.35-27.53-63.46C1218.66,186.53,1213.38,200.1,1207.51,213.4z"/>
<path fill="#FFFFFF" d="M599.12,123.78c14.16-0.03,28.32,0.06,42.48-0.04c0.22,40.51-0.01,81.02,0.12,121.53
	c38.37-40.48,76.59-81.11,115.04-121.52c17.42,0.08,34.84-0.01,52.26,0.05c-33.53,34.74-67.11,69.42-100.64,104.16
	c35.03,45.92,70.06,91.84,104.97,137.84c-17.25-0.02-34.51,0.1-51.76-0.06c-27.36-36.3-54.92-72.46-82.38-108.68
	c-12.4,13-25.1,25.71-37.54,38.67c0.03,23.36,0,46.72,0.02,70.08c-14.2,0-28.39,0-42.59,0
	C599.11,285.14,599.07,204.46,599.12,123.78z"/>
<path fill="#FFFFFF" d="M881.88,123.79c28.04-0.01,56.07-0.01,84.11-0.01c8.3,0.05,16.63-0.27,24.9,0.68
	c18.82,1.76,37.71,8.03,52.29,20.37c13.06,10.83,21.69,26.54,24.68,43.18c2.52,14.67,2.01,30.05-2.56,44.28
	c-4.42,13.9-13.24,26.33-24.79,35.21c-13.92,10.85-31.1,16.86-48.45,19.28c-12.28,1.81-24.73,1.27-37.09,1.35
	c-10.15-0.01-20.3,0-30.44-0.01c0,25.9,0,51.79,0,77.69c-14.22,0-28.44,0-42.66,0C881.89,285.14,881.86,204.46,881.88,123.79
	 M924.54,162.67c-0.04,28.99,0.02,57.97-0.03,86.96c17.17,0.03,34.34,0.07,51.51-0.02c14.96-0.32,30.86-5.13,40.77-16.93
	c9.52-11.05,11.23-27.07,7.33-40.74c-2.57-8.93-8.68-16.7-16.67-21.4c-10.62-6.3-23.27-8.1-35.43-7.88
	C956.19,162.68,940.37,162.66,924.54,162.67z"/>
<path fill="#FFFFFF" d="M1422.21,123.79c64.53-0.03,129.05,0.02,193.58-0.03c-0.15,10.6,0.39,21.27-0.24,31.82
	c-47.3,57.62-94.9,115.03-142.38,172.52c47.55,0.05,95.1,0.01,142.64,0.03c0,12.56,0.01,25.12,0,37.68
	c-66.02,0.01-132.04-0.01-198.06,0.01c0.14-10.53-0.31-21.1,0.21-31.6c47.16-57.68,94.93-114.91,142.2-172.51
	c-45.99-0.1-91.98-0.01-137.98-0.05C1422.2,149.04,1422.16,136.41,1422.21,123.79z"/>
<path fill="#4B84FB" d="M134.31,247.44c9.88-1.01,19.81-0.05,29.71-0.47c57.65-0.02,115.31,0.12,172.95,0
	c5.48-0.07,11.03,2.15,14.48,6.51c44.95,55.74,89.91,111.49,134.84,167.25c3.14,3.05,0.03,8.56-4.16,7.79
	c-49.07,0.02-98.13,0.01-147.2,0c-6.12,0.12-12.33-2.49-16.17-7.32c-29.44-40.65-60.62-80.26-96.09-115.85
	c-15.48-15.37-31.76-30.12-50.08-42.05C160.94,255.8,148.24,249.18,134.31,247.44z"/>
<path fill="#4B84FB" d="M83.51,264.48c13.8-8.36,30.52-11.8,46.5-9.5c13.09,2.33,25.03,8.74,36.09,15.88
	c22.24,14.69,41.56,33.29,60.01,52.41c-15.15,4.43-27.45,16.46-32.82,31.23c-7.13,17.66-4.39,36.97-5.4,55.5
	c-0.09,8.37,0.09,16.75-0.04,25.12c0.23,2.13-2.14,2.79-3.81,2.64c-45.98,0-91.96,0.38-137.94,0.38c-0.01-25.39,0-50.78-0.01-76.18
	c-0.88-20.82,0.49-42.26,8.27-61.81C60.06,285.64,70.03,272.55,83.51,264.48z"/>
</svg>
